<?xml version="1.0" standalone="no"?>
<!DOCTYPE svg PUBLIC "-//W3C//DTD SVG 20010904//EN"
 "http://www.w3.org/TR/2001/REC-SVG-20010904/DTD/svg10.dtd">
<svg version="1.0" xmlns="http://www.w3.org/2000/svg"
 width="300.000000pt" height="263.000000pt" viewBox="0 0 300.000000 263.000000"
 preserveAspectRatio="xMidYMid meet">
<metadata>
Created by potrace 1.10, written by Peter Selinger 2001-2011
</metadata>
<g transform="translate(0.000000,263.000000) scale(0.100000,-0.100000)"
fill="white" stroke="black">
<path d="M1173 1953 c-12 -3 -34 -18 -48 -34 l-25 -31 0 -329 c0 -208 4 -337
10 -350 25 -46 50 -49 374 -49 l306 0 32 29 33 29 3 326 c3 284 1 329 -13 356
-29 55 -51 59 -366 58 -156 -1 -294 -3 -306 -5z m625 -49 c22 -15 22 -16 22
-344 0 -285 -2 -331 -16 -344 -13 -14 -57 -16 -329 -16 l-315 0 -15 23 c-12
19 -14 72 -12 346 2 306 3 323 21 337 31 22 612 21 644 -2z"/>
<path d="M1390 1899 c0 -5 5 -9 10 -9 6 0 10 -11 10 -25 0 -24 -2 -25 -63 -25
-36 0 -68 -5 -75 -12 -7 -7 -12 -10 -13 -7 0 2 -2 12 -4 21 -3 16 5 18 66 15
38 -1 69 1 69 6 0 4 -31 7 -68 7 -65 0 -69 -1 -104 -37 -33 -35 -36 -44 -40
-105 -2 -38 0 -68 4 -68 4 0 8 5 8 11 0 5 5 7 10 4 16 -10 12 -55 -5 -55 -8 0
-15 5 -15 11 0 6 -7 4 -15 -5 -29 -28 -18 -42 28 -37 l42 5 -40 7 c-38 6 -38
6 -7 8 l32 1 0 78 c0 74 2 80 31 108 28 27 35 29 94 26 63 -4 64 -3 70 25 11
46 15 50 12 11 -2 -20 1 -34 5 -32 4 3 8 20 8 38 0 28 -4 34 -25 38 -14 3 -25
1 -25 -3z m-143 -56 c-4 -3 -2 -11 3 -18 7 -8 2 -19 -15 -35 -14 -13 -26 -19
-27 -14 0 5 -4 -13 -8 -41 l-8 -50 1 55 c0 45 5 60 25 83 14 15 28 27 31 27 2
0 1 -3 -2 -7z"/>
<path d="M1216 1811 c-10 -11 -13 -22 -8 -25 5 -3 17 3 26 13 10 11 13 22 8
25 -5 3 -17 -3 -26 -13z"/>
<path d="M1518 1893 c6 -2 12 -14 12 -26 0 -44 13 -50 94 -45 72 5 76 4 102
-23 25 -26 26 -32 22 -108 -3 -79 -3 -80 22 -84 19 -3 18 -4 -9 -6 l-34 -1 5
75 c4 58 2 75 -9 79 -9 4 -19 -7 -29 -31 -12 -28 -15 -69 -13 -185 2 -82 7
-152 11 -154 5 -3 6 -9 3 -14 -4 -7 -17 -7 -43 -1 -2 1 4 8 13 17 9 10 13 23
9 33 -3 9 -8 68 -11 131 -3 86 -1 126 10 158 10 28 11 44 4 49 -6 4 -7 1 -2
-7 5 -8 4 -11 -1 -7 -13 7 -14 -4 -20 -156 -3 -76 -2 -140 5 -157 10 -30 -1
-51 -15 -29 -5 8 -3 9 5 4 10 -6 11 -3 1 14 -11 22 -9 253 3 313 5 25 3 27
-13 18 -28 -15 -292 -13 -313 3 -14 10 16 12 161 10 146 -1 179 1 179 12 0 10
-5 11 -19 4 -18 -10 -308 -9 -338 1 -8 3 -14 -1 -15 -7 0 -7 -4 -13 -10 -12
-16 1 -16 5 -1 18 22 18 391 18 391 0 0 -7 13 -14 28 -14 l29 -2 -25 25 c-24
23 -31 25 -127 23 -70 -2 -100 1 -95 8 3 6 1 11 -4 11 -6 0 -11 -5 -11 -11 0
-6 -32 -9 -90 -8 -82 2 -93 0 -115 -21 -13 -13 -22 -27 -19 -31 3 -5 2 -9 -3
-9 -4 0 -8 -83 -8 -183 0 -193 7 -220 40 -151 18 37 21 237 5 293 -5 19 -7 37
-4 40 2 3 7 -5 11 -17 3 -12 9 -22 14 -22 5 0 6 6 3 13 -3 8 4 13 17 14 15 1
18 -2 11 -10 -5 -7 -7 -38 -5 -69 4 -45 10 -59 24 -63 15 -5 19 -16 19 -51 0
-24 -4 -44 -10 -44 -5 0 -10 -6 -10 -14 0 -8 -3 -16 -7 -18 -5 -1 -16 -18 -25
-36 -10 -18 -13 -30 -6 -26 7 4 8 3 4 -5 -12 -19 -27 -2 -16 19 6 10 9 76 8
147 l-2 128 -5 -135 c-4 -77 -11 -144 -18 -156 -14 -25 -8 -35 15 -27 11 5 13
3 7 -8 -6 -11 -5 -12 6 -1 21 19 322 17 339 -3 7 -8 17 -12 23 -8 6 3 7 1 3
-6 -4 -6 -12 -9 -17 -5 -16 10 -333 11 -353 1 -13 -6 -16 -6 -12 2 4 6 3 11
-3 11 -17 0 -21 -17 -7 -29 10 -8 16 -9 21 -1 8 13 345 14 345 0 0 -6 -65 -10
-172 -11 -95 0 -181 -2 -191 -4 -10 -2 -14 1 -11 7 4 7 2 8 -4 4 -7 -4 -10 1
-7 14 3 13 0 18 -7 14 -6 -4 -8 -3 -4 4 3 6 1 14 -5 18 -8 4 -9 3 -5 -4 5 -8
2 -10 -8 -6 -26 10 -18 -10 17 -43 24 -24 37 -29 52 -23 33 14 163 12 168 -2
4 -10 6 -10 6 0 1 6 11 12 24 12 19 0 22 -5 22 -40 1 -22 -3 -40 -7 -40 -4 0
-8 -5 -8 -11 0 -6 8 -9 18 -7 12 2 16 11 14 31 l-3 27 75 0 c45 0 78 -4 82
-11 5 -8 -1 -10 -20 -7 -14 3 -29 1 -32 -3 -3 -5 10 -9 30 -9 28 0 41 8 70 41
29 35 37 39 42 25 5 -12 -4 -29 -27 -54 -19 -20 -24 -29 -13 -19 12 10 24 15
26 10 3 -4 3 -3 2 4 -4 17 13 26 19 11 3 -7 6 2 6 20 1 44 0 47 -10 44 -5 -1
-9 25 -9 58 0 33 -4 60 -9 60 -5 0 -12 12 -14 28 -2 15 -5 -9 -6 -54 -1 -74
-3 -82 -28 -106 -25 -24 -38 -27 -111 -30 -69 -2 -82 -1 -80 12 4 19 55 25
102 12 31 -9 37 -7 67 24 33 34 33 36 30 114 l-3 80 31 0 c31 0 42 -14 19 -23
-7 -2 -10 -8 -6 -12 8 -8 32 14 36 33 2 10 -10 12 -40 10 l-43 -3 -5 -73 c-3
-40 -1 -77 3 -81 4 -4 2 -8 -6 -8 -11 0 -14 35 -16 169 -3 180 10 272 19 138
l5 -75 41 -3 c31 -2 41 1 41 13 0 9 -9 15 -24 15 -22 0 -23 3 -23 77 0 73 -2
79 -32 113 l-33 35 38 -34 c35 -33 37 -39 37 -93 0 -85 27 -75 30 12 3 58 -3
58 -10 0 l-7 -55 -1 57 c-2 51 -6 63 -38 98 -35 39 -38 40 -98 38 l-61 -2 63
-3 c90 -6 67 -23 -30 -23 l-80 0 4 30 c4 25 1 30 -16 29 -12 0 -15 -3 -8 -6z
m-248 -323 c0 -87 -3 -161 -7 -163 -5 -3 -8 71 -8 163 0 92 3 166 8 163 4 -2
7 -76 7 -163z m369 139 c-6 -13 -9 -72 -7 -157 l3 -137 -145 3 c-80 2 -148 6
-152 10 -4 4 59 6 139 4 131 -3 145 -1 139 13 -3 9 -6 50 -6 91 0 48 -4 74
-11 74 -8 0 -10 -14 -6 -40 6 -47 -8 -54 -17 -9 -9 46 -8 87 2 71 5 -7 16 -10
26 -6 13 5 16 17 15 48 l-2 41 -131 -3 c-73 -2 -136 -8 -143 -14 -9 -7 -13 -7
-13 1 0 6 5 11 11 11 5 0 7 4 4 10 -5 9 278 20 298 12 4 -2 2 -12 -4 -23z
m-59 -29 c0 -17 -6 -20 -47 -19 -39 0 -44 2 -25 9 30 13 28 24 -3 16 -14 -4
-25 -2 -25 4 0 5 23 10 50 10 43 0 50 -3 50 -20z m-190 -26 c0 -27 -4 -35 -14
-31 -8 3 -17 1 -20 -6 -2 -7 -5 1 -5 17 -1 25 1 27 16 15 15 -13 16 -11 9 14
-4 16 -2 27 4 27 5 0 10 -16 10 -36z m142 -44 c25 -26 29 -36 24 -63 -19 -97
-156 -85 -156 14 0 29 6 42 26 58 37 29 70 26 106 -9z m-72 -158 c0 -10 -107
-8 -117 2 -3 3 21 6 55 6 34 0 62 -4 62 -8z m273 -151 l-38 -36 33 35 c26 29
32 45 34 85 l2 50 3 -49 c4 -46 2 -52 -34 -85z m-94 94 c7 -7 -46 -10 -159
-10 -120 0 -166 3 -159 11 5 6 7 13 5 15 -3 2 65 2 149 -1 85 -3 159 -9 164
-15z"/>
<path d="M1426 1598 c-9 -12 -16 -31 -16 -41 0 -24 44 -67 70 -67 50 0 80 79
42 113 -27 25 -78 22 -96 -5z"/>
<path d="M1467 1883 c-4 -3 -7 -12 -7 -20 0 -15 26 -18 34 -4 7 11 -18 33 -27
24z"/>
<path d="M1740 1885 c0 -4 14 -23 30 -42 l30 -34 0 28 c0 20 -3 24 -9 14 -11
-17 -25 3 -15 22 4 6 4 9 -1 5 -4 -4 -14 -3 -22 3 -7 6 -13 8 -13 4z"/>
<path d="M1333 1535 c0 -33 2 -45 4 -27 2 18 2 45 0 60 -2 15 -4 0 -4 -33z"/>
<path d="M1173 1564 c-7 -19 2 -28 22 -21 19 8 19 23 0 31 -9 3 -18 -1 -22
-10z"/>
<path d="M1757 1574 c-14 -14 -7 -35 11 -32 9 2 17 10 17 17 0 16 -18 25 -28
15z"/>
<path d="M1150 1518 c0 -10 5 -18 11 -18 5 0 8 4 4 9 -3 6 12 11 32 13 l38 3
-42 5 c-36 5 -43 3 -43 -12z"/>
<path d="M1205 1483 c-3 -14 -5 -57 -4 -95 1 -37 0 -70 -3 -73 -2 -3 -6 23 -7
57 -1 34 -4 66 -7 70 -8 12 -24 -1 -24 -18 0 -8 5 -12 10 -9 6 4 10 -14 10
-47 0 -49 3 -57 38 -91 21 -20 48 -37 60 -37 12 0 21 -3 19 -7 -1 -5 3 -9 8
-10 6 -2 10 5 10 15 0 13 -7 16 -34 14 -22 -3 -31 0 -27 7 4 6 39 11 82 11
l74 0 0 -30 c0 -20 5 -30 15 -30 11 0 15 11 14 48 l-2 47 -7 -40 c-6 -38 -6
-39 -11 -10 l-4 30 -77 0 c-66 0 -79 3 -101 23 -23 22 -24 27 -19 113 5 89 0
113 -13 62z m49 -215 c-4 -5 -17 0 -30 13 -13 12 -21 26 -18 31 4 5 17 0 30
-13 13 -12 21 -26 18 -31z"/>
<path d="M1150 1302 c0 -5 16 -26 36 -48 20 -21 31 -30 26 -18 -6 11 -18 26
-26 34 -9 7 -16 19 -16 26 0 8 -4 14 -10 14 -5 0 -10 -4 -10 -8z"/>
<path d="M1460 1250 c0 -15 5 -20 18 -18 9 2 17 10 17 18 0 8 -8 16 -17 18
-13 2 -18 -3 -18 -18z"/>
<path d="M1485 1076 c-17 -7 -39 -25 -48 -40 l-18 -27 -33 36 -33 35 -308 0
c-195 -1 -315 -5 -328 -12 -14 -7 -26 -6 -44 3 -19 10 -31 10 -56 1 -20 -8
-35 -8 -41 -2 -6 6 -53 10 -106 10 -88 0 -98 -2 -118 -23 -26 -27 -27 -45 -7
-83 11 -22 15 -64 15 -166 0 -194 -28 -179 329 -178 172 1 293 6 304 12 13 7
23 6 30 -1 15 -15 60 -14 75 1 9 9 15 9 24 0 8 -8 50 -12 121 -12 l110 0 31
34 31 33 30 -34 30 -34 285 1 c233 1 641 0 773 -2 18 -1 39 10 58 28 l31 29
-6 90 c-6 106 -6 93 0 179 5 64 4 70 -21 96 -35 37 -66 44 -111 25 -25 -10
-41 -12 -54 -5 -27 14 -223 13 -238 -2 -9 -9 -17 -9 -34 0 -13 7 -43 11 -68
11 -68 -2 -229 -2 -283 0 -26 1 -57 -3 -68 -10 -15 -8 -24 -8 -32 0 -16 16
-73 13 -87 -4 -11 -13 -16 -13 -34 -2 -34 22 -69 27 -101 13z m-1005 -58 c0
-18 -5 -28 -15 -28 -13 0 -15 -25 -15 -162 l0 -163 -25 -1 -25 -2 0 164 c0
139 -2 164 -15 164 -10 0 -15 10 -15 28 0 26 2 27 55 27 53 0 55 -1 55 -27z
m96 -89 c28 -276 28 -266 2 -265 -19 1 -24 8 -28 41 -3 22 -9 40 -15 40 -5 0
-12 -18 -15 -40 -4 -33 -9 -40 -27 -41 -13 0 -23 3 -23 8 0 22 31 354 34 363
2 6 17 10 32 10 l29 -2 11 -114z m94 -44 c0 -158 1 -165 20 -165 15 0 20 -7
20 -27 0 -26 -3 -28 -42 -28 l-43 0 -5 185 c-3 102 -4 188 -2 193 2 4 14 7 28
7 l24 0 0 -165z m150 133 c0 -21 -5 -28 -20 -28 -18 0 -20 -7 -20 -55 0 -48 2
-55 20 -55 15 0 20 -7 20 -25 0 -18 -5 -25 -20 -25 -18 0 -20 -7 -20 -55 0
-48 2 -55 20 -55 15 0 20 -7 20 -27 0 -26 -3 -28 -45 -28 l-45 0 0 190 0 190
45 0 c42 0 45 -2 45 -27z m85 -12 c3 -23 10 -81 16 -131 5 -49 12 -91 13 -93
2 -1 1 58 -2 131 l-5 135 27 0 26 0 0 -184 c0 -101 0 -187 0 -191 0 -4 -12 -7
-27 -7 l-28 0 -15 127 c-9 69 -20 130 -25 134 -4 4 -5 0 -2 -9 3 -9 7 -70 8
-134 l1 -117 -26 -3 -26 -3 0 193 0 193 30 0 c27 0 30 -4 35 -41z m213 10 c2
-18 -1 -26 -12 -26 -13 0 -16 -24 -18 -161 l-3 -162 -27 -3 -28 -3 0 165 c0
139 -2 164 -15 164 -10 0 -15 10 -15 28 0 27 1 27 58 25 53 -1 57 -3 60 -27z
m110 0 c3 -21 -1 -26 -17 -26 -19 0 -21 -6 -21 -55 0 -48 2 -55 20 -55 15 0
20 -7 20 -25 0 -18 -5 -25 -20 -25 -18 0 -20 -7 -20 -55 0 -49 2 -55 21 -55
16 0 20 -5 17 -27 -3 -24 -7 -26 -48 -26 l-45 0 -1 184 c-1 101 0 186 1 189 2
3 23 5 47 4 39 -1 43 -4 46 -28z m130 12 c9 -8 12 -55 12 -173 0 -118 -3 -165
-12 -173 -7 -5 -34 -11 -60 -13 l-48 -4 0 190 0 190 48 -4 c26 -2 53 -8 60
-13z m207 8 c12 -9 20 -30 23 -68 5 -59 -4 -74 -38 -63 -16 5 -20 15 -20 46 0
21 -4 39 -10 39 -6 0 -10 -52 -10 -135 0 -95 3 -135 11 -135 9 0 10 22 6 75
l-5 75 31 0 32 0 -2 -101 -2 -101 -46 -3 c-73 -5 -75 1 -75 187 0 136 3 164
17 180 19 21 62 24 88 4z m144 -120 c6 -72 14 -158 18 -192 5 -59 5 -61 -18
-60 -20 1 -25 7 -29 41 -6 48 -25 45 -26 -4 0 -30 -4 -34 -28 -36 -28 -1 -28
0 -22 50 3 27 11 109 17 180 6 72 12 135 14 141 2 6 16 11 33 11 l29 0 12
-131z m116 15 c9 -176 10 -177 19 -25 l8 141 35 -2 34 -2 0 -187 c0 -102 -3
-186 -6 -186 -3 0 -15 0 -27 0 -21 0 -21 2 -15 136 3 75 4 134 1 131 -3 -2 -8
-65 -12 -138 -7 -125 -8 -134 -27 -134 -18 0 -20 9 -26 110 l-5 110 -2 -106
c-2 -105 -2 -107 -27 -111 l-24 -5 -3 189 c-2 104 -2 191 -1 192 1 1 18 2 37
2 l34 0 7 -115z m232 97 c17 -14 18 -332 0 -346 -6 -5 -33 -11 -59 -13 l-48
-4 0 190 0 190 48 -4 c26 -2 52 -8 59 -13z m91 -143 l-3 -165 23 0 c19 0 23
-5 20 -26 -3 -24 -7 -26 -50 -28 l-48 -2 0 193 0 193 30 0 31 0 -3 -165z m150
131 c3 -21 -1 -26 -17 -26 -19 0 -21 -6 -21 -55 0 -48 2 -55 20 -55 15 0 20
-7 20 -25 0 -18 -5 -25 -20 -25 -18 0 -20 -7 -20 -55 0 -49 2 -55 21 -55 16 0
20 -5 17 -27 -3 -24 -7 -26 -48 -26 l-45 0 -3 189 -2 190 47 -2 c44 -2 48 -4
51 -28z m129 12 c9 -7 12 -60 12 -186 l1 -177 -25 0 c-24 0 -25 2 -25 78 0 45
-4 77 -10 77 -6 0 -10 -32 -10 -77 0 -76 0 -78 -25 -78 l-25 0 0 190 0 190 48
-4 c26 -2 52 -8 59 -13z m138 8 c13 -10 20 -30 23 -75 l4 -61 -31 0 c-31 0
-31 1 -31 51 0 31 -4 48 -10 44 -5 -3 -10 -25 -10 -47 0 -34 7 -48 41 -85 41
-45 41 -45 37 -110 -4 -71 -20 -93 -65 -93 -41 0 -63 33 -63 95 0 53 1 55 28
55 26 0 27 -2 24 -45 -3 -28 0 -45 7 -45 6 0 11 20 11 48 0 42 -5 53 -35 82
-33 32 -35 38 -35 97 0 50 4 67 20 83 23 23 58 26 85 6z"/>
<path d="M533 860 c0 -41 2 -58 4 -37 2 20 2 54 0 75 -2 20 -4 3 -4 -38z"/>
<path d="M1300 855 c0 -83 4 -135 10 -135 6 0 10 52 10 135 0 83 -4 135 -10
135 -6 0 -10 -52 -10 -135z"/>
<path d="M1660 860 c0 -40 3 -70 7 -67 7 7 4 129 -3 136 -2 2 -4 -29 -4 -69z"/>
<path d="M2000 934 c0 -34 4 -53 10 -49 6 3 10 28 10 56 0 27 -4 49 -10 49 -5
0 -10 -25 -10 -56z"/>
<path d="M2000 780 c0 -33 4 -60 10 -60 6 0 10 27 10 60 0 33 -4 60 -10 60 -6
0 -10 -27 -10 -60z"/>
<path d="M2370 929 c0 -37 4 -58 10 -54 6 3 10 31 10 61 0 30 -4 54 -10 54 -6
0 -10 -27 -10 -61z"/>
</g>
</svg>
